<mxfile host="Electron" agent="Mozilla/5.0 (X11; Linux x86_64) AppleWebKit/537.36 (KHTML, like Gecko) draw.io/28.1.2 Chrome/138.0.7204.243 Electron/37.4.0 Safari/537.36" version="28.1.2">
  <diagram name="Page-1" id="pw1yM4c9U9q3CPbkuXtG">
    <mxGraphModel dx="1057" dy="515" grid="1" gridSize="10" guides="1" tooltips="1" connect="1" arrows="1" fold="1" page="1" pageScale="1" pageWidth="850" pageHeight="1100" math="0" shadow="0">
      <root>
        <mxCell id="0" />
        <mxCell id="1" parent="0" />
        <mxCell id="oPPI5yB2qSIM9ixok3__-11" value="&lt;font style=&quot;font-size: 24px;&quot;&gt;1&lt;/font&gt;" style="rounded=0;whiteSpace=wrap;html=1;strokeColor=none;" vertex="1" parent="1">
          <mxGeometry x="540" y="340" width="50" height="40" as="geometry" />
        </mxCell>
        <mxCell id="7N5agTIx9JFiQQaqSErQ-2" value="" style="rounded=0;whiteSpace=wrap;html=1;strokeColor=#1E90FF;" parent="1" vertex="1">
          <mxGeometry x="140" y="340" width="50" height="40" as="geometry" />
        </mxCell>
        <mxCell id="oPPI5yB2qSIM9ixok3__-2" value="&lt;font style=&quot;font-size: 24px;&quot;&gt;1&lt;/font&gt;" style="rounded=0;whiteSpace=wrap;html=1;strokeColor=#1E90FF;" vertex="1" parent="1">
          <mxGeometry x="190" y="340" width="50" height="40" as="geometry" />
        </mxCell>
        <mxCell id="oPPI5yB2qSIM9ixok3__-3" value="&lt;font style=&quot;font-size: 24px;&quot;&gt;1&lt;/font&gt;" style="rounded=0;whiteSpace=wrap;html=1;strokeColor=#1E90FF;" vertex="1" parent="1">
          <mxGeometry x="240" y="340" width="50" height="40" as="geometry" />
        </mxCell>
        <mxCell id="oPPI5yB2qSIM9ixok3__-4" value="&lt;font style=&quot;font-size: 24px;&quot;&gt;0&lt;/font&gt;" style="rounded=0;whiteSpace=wrap;html=1;strokeColor=#1E90FF;" vertex="1" parent="1">
          <mxGeometry x="290" y="340" width="50" height="40" as="geometry" />
        </mxCell>
        <mxCell id="oPPI5yB2qSIM9ixok3__-5" value="&lt;font style=&quot;font-size: 24px;&quot;&gt;1&lt;/font&gt;" style="rounded=0;whiteSpace=wrap;html=1;strokeColor=#1E90FF;" vertex="1" parent="1">
          <mxGeometry x="340" y="340" width="50" height="40" as="geometry" />
        </mxCell>
        <mxCell id="oPPI5yB2qSIM9ixok3__-6" value="&lt;font style=&quot;font-size: 24px;&quot;&gt;0&lt;/font&gt;" style="rounded=0;whiteSpace=wrap;html=1;strokeColor=#1E90FF;" vertex="1" parent="1">
          <mxGeometry x="390" y="340" width="50" height="40" as="geometry" />
        </mxCell>
        <mxCell id="oPPI5yB2qSIM9ixok3__-7" value="&lt;font style=&quot;font-size: 24px;&quot;&gt;1&lt;/font&gt;" style="rounded=0;whiteSpace=wrap;html=1;strokeColor=#1E90FF;" vertex="1" parent="1">
          <mxGeometry x="440" y="340" width="50" height="40" as="geometry" />
        </mxCell>
        <mxCell id="oPPI5yB2qSIM9ixok3__-8" value="&lt;font style=&quot;font-size: 24px;&quot;&gt;0&lt;/font&gt;" style="rounded=0;whiteSpace=wrap;html=1;strokeColor=#1E90FF;" vertex="1" parent="1">
          <mxGeometry x="490" y="340" width="50" height="40" as="geometry" />
        </mxCell>
        <mxCell id="oPPI5yB2qSIM9ixok3__-12" value="" style="curved=1;endArrow=classic;html=1;rounded=0;exitX=0.5;exitY=0;exitDx=0;exitDy=0;entryX=0.5;entryY=0;entryDx=0;entryDy=0;" edge="1" parent="1">
          <mxGeometry width="50" height="50" relative="1" as="geometry">
            <mxPoint x="156" y="340" as="sourcePoint" />
            <mxPoint x="206" y="340" as="targetPoint" />
            <Array as="points">
              <mxPoint x="161" y="320" />
              <mxPoint x="201" y="320" />
            </Array>
          </mxGeometry>
        </mxCell>
        <mxCell id="oPPI5yB2qSIM9ixok3__-13" value="" style="curved=1;endArrow=classic;html=1;rounded=0;exitX=0.5;exitY=0;exitDx=0;exitDy=0;entryX=0.5;entryY=0;entryDx=0;entryDy=0;" edge="1" parent="1">
          <mxGeometry width="50" height="50" relative="1" as="geometry">
            <mxPoint x="209" y="340" as="sourcePoint" />
            <mxPoint x="259" y="340" as="targetPoint" />
            <Array as="points">
              <mxPoint x="214" y="320" />
              <mxPoint x="254" y="320" />
            </Array>
          </mxGeometry>
        </mxCell>
        <mxCell id="oPPI5yB2qSIM9ixok3__-14" value="" style="curved=1;endArrow=classic;html=1;rounded=0;exitX=0.5;exitY=0;exitDx=0;exitDy=0;entryX=0.5;entryY=0;entryDx=0;entryDy=0;" edge="1" parent="1">
          <mxGeometry width="50" height="50" relative="1" as="geometry">
            <mxPoint x="261" y="340" as="sourcePoint" />
            <mxPoint x="311" y="340" as="targetPoint" />
            <Array as="points">
              <mxPoint x="266" y="320" />
              <mxPoint x="306" y="320" />
            </Array>
          </mxGeometry>
        </mxCell>
        <mxCell id="oPPI5yB2qSIM9ixok3__-15" value="" style="curved=1;endArrow=classic;html=1;rounded=0;exitX=0.5;exitY=0;exitDx=0;exitDy=0;entryX=0.5;entryY=0;entryDx=0;entryDy=0;" edge="1" parent="1">
          <mxGeometry width="50" height="50" relative="1" as="geometry">
            <mxPoint x="313" y="340" as="sourcePoint" />
            <mxPoint x="363" y="340" as="targetPoint" />
            <Array as="points">
              <mxPoint x="318" y="320" />
              <mxPoint x="358" y="320" />
            </Array>
          </mxGeometry>
        </mxCell>
        <mxCell id="oPPI5yB2qSIM9ixok3__-16" value="" style="curved=1;endArrow=classic;html=1;rounded=0;exitX=0.5;exitY=0;exitDx=0;exitDy=0;entryX=0.5;entryY=0;entryDx=0;entryDy=0;" edge="1" parent="1">
          <mxGeometry width="50" height="50" relative="1" as="geometry">
            <mxPoint x="366" y="340" as="sourcePoint" />
            <mxPoint x="416" y="340" as="targetPoint" />
            <Array as="points">
              <mxPoint x="371" y="320" />
              <mxPoint x="411" y="320" />
            </Array>
          </mxGeometry>
        </mxCell>
        <mxCell id="oPPI5yB2qSIM9ixok3__-17" value="" style="curved=1;endArrow=classic;html=1;rounded=0;exitX=0.5;exitY=0;exitDx=0;exitDy=0;entryX=0.5;entryY=0;entryDx=0;entryDy=0;" edge="1" parent="1">
          <mxGeometry width="50" height="50" relative="1" as="geometry">
            <mxPoint x="418" y="340" as="sourcePoint" />
            <mxPoint x="468" y="340" as="targetPoint" />
            <Array as="points">
              <mxPoint x="423" y="320" />
              <mxPoint x="463" y="320" />
            </Array>
          </mxGeometry>
        </mxCell>
        <mxCell id="oPPI5yB2qSIM9ixok3__-18" value="" style="curved=1;endArrow=classic;html=1;rounded=0;exitX=0.5;exitY=0;exitDx=0;exitDy=0;entryX=0.5;entryY=0;entryDx=0;entryDy=0;" edge="1" parent="1">
          <mxGeometry width="50" height="50" relative="1" as="geometry">
            <mxPoint x="469" y="340" as="sourcePoint" />
            <mxPoint x="519" y="340" as="targetPoint" />
            <Array as="points">
              <mxPoint x="474" y="320" />
              <mxPoint x="514" y="320" />
            </Array>
          </mxGeometry>
        </mxCell>
        <mxCell id="oPPI5yB2qSIM9ixok3__-19" value="" style="curved=1;endArrow=classic;html=1;rounded=0;exitX=0.5;exitY=0;exitDx=0;exitDy=0;entryX=0.5;entryY=0;entryDx=0;entryDy=0;" edge="1" parent="1">
          <mxGeometry width="50" height="50" relative="1" as="geometry">
            <mxPoint x="521" y="340" as="sourcePoint" />
            <mxPoint x="571" y="340" as="targetPoint" />
            <Array as="points">
              <mxPoint x="526" y="320" />
              <mxPoint x="566" y="320" />
            </Array>
          </mxGeometry>
        </mxCell>
      </root>
    </mxGraphModel>
  </diagram>
</mxfile>
